<mxfile host="Electron" modified="2023-10-05T00:35:08.057Z" agent="Mozilla/5.0 (Windows NT 10.0; Win64; x64) AppleWebKit/537.36 (KHTML, like Gecko) draw.io/21.7.5 Chrome/114.0.5735.289 Electron/25.8.1 Safari/537.36" etag="9ZbjNMMWRwWC_n3yOKTg" version="21.7.5" type="device">
  <diagram id="C5RBs43oDa-KdzZeNtuy" name="Page-1">
    <mxGraphModel dx="1050" dy="621" grid="1" gridSize="10" guides="1" tooltips="1" connect="1" arrows="1" fold="1" page="1" pageScale="1" pageWidth="827" pageHeight="1169" math="0" shadow="0">
      <root>
        <mxCell id="WIyWlLk6GJQsqaUBKTNV-0" />
        <mxCell id="WIyWlLk6GJQsqaUBKTNV-1" parent="WIyWlLk6GJQsqaUBKTNV-0" />
        <mxCell id="a0hSZ147tXvclcMljhqe-1" style="edgeStyle=orthogonalEdgeStyle;rounded=0;orthogonalLoop=1;jettySize=auto;html=1;exitX=0.5;exitY=1;exitDx=0;exitDy=0;exitPerimeter=0;entryX=0.5;entryY=0;entryDx=0;entryDy=0;" edge="1" parent="WIyWlLk6GJQsqaUBKTNV-1" source="a0hSZ147tXvclcMljhqe-0" target="a0hSZ147tXvclcMljhqe-2">
          <mxGeometry relative="1" as="geometry">
            <mxPoint x="230" y="860" as="targetPoint" />
            <Array as="points" />
          </mxGeometry>
        </mxCell>
        <mxCell id="a0hSZ147tXvclcMljhqe-0" value="양의 정수 x&amp;nbsp;" style="shape=card;whiteSpace=wrap;html=1;" vertex="1" parent="WIyWlLk6GJQsqaUBKTNV-1">
          <mxGeometry x="190" y="770" width="80" height="60" as="geometry" />
        </mxCell>
        <mxCell id="a0hSZ147tXvclcMljhqe-4" style="edgeStyle=orthogonalEdgeStyle;rounded=0;orthogonalLoop=1;jettySize=auto;html=1;exitX=0.5;exitY=1;exitDx=0;exitDy=0;entryX=0.5;entryY=0;entryDx=0;entryDy=0;" edge="1" parent="WIyWlLk6GJQsqaUBKTNV-1" source="a0hSZ147tXvclcMljhqe-2" target="a0hSZ147tXvclcMljhqe-3">
          <mxGeometry relative="1" as="geometry" />
        </mxCell>
        <mxCell id="a0hSZ147tXvclcMljhqe-26" style="edgeStyle=orthogonalEdgeStyle;rounded=0;orthogonalLoop=1;jettySize=auto;html=1;exitX=1;exitY=0.5;exitDx=0;exitDy=0;entryX=0;entryY=0.5;entryDx=0;entryDy=0;" edge="1" parent="WIyWlLk6GJQsqaUBKTNV-1" source="a0hSZ147tXvclcMljhqe-2" target="a0hSZ147tXvclcMljhqe-16">
          <mxGeometry relative="1" as="geometry" />
        </mxCell>
        <mxCell id="a0hSZ147tXvclcMljhqe-2" value="x 숫자?" style="rhombus;whiteSpace=wrap;html=1;" vertex="1" parent="WIyWlLk6GJQsqaUBKTNV-1">
          <mxGeometry x="190" y="860" width="80" height="80" as="geometry" />
        </mxCell>
        <mxCell id="a0hSZ147tXvclcMljhqe-5" style="edgeStyle=orthogonalEdgeStyle;rounded=0;orthogonalLoop=1;jettySize=auto;html=1;exitX=0.5;exitY=1;exitDx=0;exitDy=0;" edge="1" parent="WIyWlLk6GJQsqaUBKTNV-1" source="a0hSZ147tXvclcMljhqe-3">
          <mxGeometry relative="1" as="geometry">
            <mxPoint x="230" y="1060" as="targetPoint" />
          </mxGeometry>
        </mxCell>
        <mxCell id="a0hSZ147tXvclcMljhqe-31" style="edgeStyle=orthogonalEdgeStyle;rounded=0;orthogonalLoop=1;jettySize=auto;html=1;exitX=1;exitY=0.5;exitDx=0;exitDy=0;" edge="1" parent="WIyWlLk6GJQsqaUBKTNV-1" source="a0hSZ147tXvclcMljhqe-3">
          <mxGeometry relative="1" as="geometry">
            <mxPoint x="470" y="980" as="targetPoint" />
          </mxGeometry>
        </mxCell>
        <mxCell id="a0hSZ147tXvclcMljhqe-3" value="x&amp;gt;100 || x&amp;lt;1" style="rhombus;whiteSpace=wrap;html=1;" vertex="1" parent="WIyWlLk6GJQsqaUBKTNV-1">
          <mxGeometry x="190" y="960" width="80" height="80" as="geometry" />
        </mxCell>
        <mxCell id="a0hSZ147tXvclcMljhqe-35" style="edgeStyle=orthogonalEdgeStyle;rounded=0;orthogonalLoop=1;jettySize=auto;html=1;exitX=1;exitY=0.5;exitDx=0;exitDy=0;entryX=0.5;entryY=0;entryDx=0;entryDy=0;" edge="1" parent="WIyWlLk6GJQsqaUBKTNV-1" source="a0hSZ147tXvclcMljhqe-6" target="a0hSZ147tXvclcMljhqe-7">
          <mxGeometry relative="1" as="geometry">
            <Array as="points">
              <mxPoint x="390" y="1100" />
              <mxPoint x="390" y="590" />
              <mxPoint x="505" y="590" />
            </Array>
          </mxGeometry>
        </mxCell>
        <mxCell id="a0hSZ147tXvclcMljhqe-6" value="&lt;div&gt;var resultsDiv = document.getElementById(&quot;division&quot;);&lt;/div&gt;&lt;div&gt;resultsDiv.innerHTML = &#39;&#39;;&lt;/div&gt;&lt;div&gt;&lt;br&gt;&lt;/div&gt;&lt;div&gt;i=1&lt;/div&gt;" style="rounded=0;whiteSpace=wrap;html=1;" vertex="1" parent="WIyWlLk6GJQsqaUBKTNV-1">
          <mxGeometry x="115" y="1060" width="230" height="80" as="geometry" />
        </mxCell>
        <mxCell id="a0hSZ147tXvclcMljhqe-10" style="edgeStyle=orthogonalEdgeStyle;rounded=0;orthogonalLoop=1;jettySize=auto;html=1;exitX=0.5;exitY=1;exitDx=0;exitDy=0;entryX=0.5;entryY=0;entryDx=0;entryDy=0;" edge="1" parent="WIyWlLk6GJQsqaUBKTNV-1" source="a0hSZ147tXvclcMljhqe-7" target="a0hSZ147tXvclcMljhqe-9">
          <mxGeometry relative="1" as="geometry" />
        </mxCell>
        <mxCell id="a0hSZ147tXvclcMljhqe-33" style="edgeStyle=orthogonalEdgeStyle;rounded=0;orthogonalLoop=1;jettySize=auto;html=1;exitX=1;exitY=0.5;exitDx=0;exitDy=0;entryX=1;entryY=0.5;entryDx=0;entryDy=0;" edge="1" parent="WIyWlLk6GJQsqaUBKTNV-1" source="a0hSZ147tXvclcMljhqe-7" target="a0hSZ147tXvclcMljhqe-16">
          <mxGeometry relative="1" as="geometry">
            <Array as="points">
              <mxPoint x="640" y="650" />
              <mxPoint x="640" y="981" />
            </Array>
          </mxGeometry>
        </mxCell>
        <mxCell id="a0hSZ147tXvclcMljhqe-7" value="i &amp;lt;= x" style="rhombus;whiteSpace=wrap;html=1;" vertex="1" parent="WIyWlLk6GJQsqaUBKTNV-1">
          <mxGeometry x="465" y="610" width="80" height="80" as="geometry" />
        </mxCell>
        <mxCell id="a0hSZ147tXvclcMljhqe-12" style="edgeStyle=orthogonalEdgeStyle;rounded=0;orthogonalLoop=1;jettySize=auto;html=1;exitX=0.5;exitY=1;exitDx=0;exitDy=0;entryX=0.5;entryY=0;entryDx=0;entryDy=0;" edge="1" parent="WIyWlLk6GJQsqaUBKTNV-1" source="a0hSZ147tXvclcMljhqe-9" target="a0hSZ147tXvclcMljhqe-11">
          <mxGeometry relative="1" as="geometry" />
        </mxCell>
        <mxCell id="a0hSZ147tXvclcMljhqe-24" style="edgeStyle=orthogonalEdgeStyle;rounded=0;orthogonalLoop=1;jettySize=auto;html=1;exitX=1;exitY=0.5;exitDx=0;exitDy=0;entryX=1;entryY=0.5;entryDx=0;entryDy=0;" edge="1" parent="WIyWlLk6GJQsqaUBKTNV-1" source="a0hSZ147tXvclcMljhqe-9" target="a0hSZ147tXvclcMljhqe-14">
          <mxGeometry relative="1" as="geometry">
            <Array as="points">
              <mxPoint x="610" y="751" />
              <mxPoint x="610" y="906" />
            </Array>
          </mxGeometry>
        </mxCell>
        <mxCell id="a0hSZ147tXvclcMljhqe-9" value="x%i==0" style="rhombus;whiteSpace=wrap;html=1;" vertex="1" parent="WIyWlLk6GJQsqaUBKTNV-1">
          <mxGeometry x="465" y="711" width="80" height="80" as="geometry" />
        </mxCell>
        <mxCell id="a0hSZ147tXvclcMljhqe-13" style="edgeStyle=orthogonalEdgeStyle;rounded=0;orthogonalLoop=1;jettySize=auto;html=1;exitX=0.5;exitY=1;exitDx=0;exitDy=0;" edge="1" parent="WIyWlLk6GJQsqaUBKTNV-1" source="a0hSZ147tXvclcMljhqe-11">
          <mxGeometry relative="1" as="geometry">
            <mxPoint x="505" y="891" as="targetPoint" />
          </mxGeometry>
        </mxCell>
        <mxCell id="a0hSZ147tXvclcMljhqe-11" value="resultsDiv.innerHTML += x + &quot;의 약수는: &quot; + i + &quot;&amp;lt;br&amp;gt;&quot;;" style="rounded=0;whiteSpace=wrap;html=1;" vertex="1" parent="WIyWlLk6GJQsqaUBKTNV-1">
          <mxGeometry x="420" y="811" width="170" height="60" as="geometry" />
        </mxCell>
        <mxCell id="a0hSZ147tXvclcMljhqe-15" style="edgeStyle=orthogonalEdgeStyle;rounded=0;orthogonalLoop=1;jettySize=auto;html=1;exitX=0.5;exitY=1;exitDx=0;exitDy=0;" edge="1" parent="WIyWlLk6GJQsqaUBKTNV-1" source="a0hSZ147tXvclcMljhqe-14">
          <mxGeometry relative="1" as="geometry">
            <mxPoint x="505" y="951" as="targetPoint" />
          </mxGeometry>
        </mxCell>
        <mxCell id="a0hSZ147tXvclcMljhqe-32" style="edgeStyle=orthogonalEdgeStyle;rounded=0;orthogonalLoop=1;jettySize=auto;html=1;exitX=0;exitY=0.5;exitDx=0;exitDy=0;entryX=0;entryY=0.5;entryDx=0;entryDy=0;" edge="1" parent="WIyWlLk6GJQsqaUBKTNV-1" source="a0hSZ147tXvclcMljhqe-14" target="a0hSZ147tXvclcMljhqe-7">
          <mxGeometry relative="1" as="geometry">
            <Array as="points">
              <mxPoint x="400" y="906" />
              <mxPoint x="400" y="650" />
            </Array>
          </mxGeometry>
        </mxCell>
        <mxCell id="a0hSZ147tXvclcMljhqe-14" value="i++" style="rounded=0;whiteSpace=wrap;html=1;" vertex="1" parent="WIyWlLk6GJQsqaUBKTNV-1">
          <mxGeometry x="445" y="891" width="120" height="30" as="geometry" />
        </mxCell>
        <mxCell id="a0hSZ147tXvclcMljhqe-16" value="stop" style="ellipse;whiteSpace=wrap;html=1;" vertex="1" parent="WIyWlLk6GJQsqaUBKTNV-1">
          <mxGeometry x="470" y="951" width="70" height="60" as="geometry" />
        </mxCell>
        <mxCell id="a0hSZ147tXvclcMljhqe-18" style="edgeStyle=orthogonalEdgeStyle;rounded=0;orthogonalLoop=1;jettySize=auto;html=1;exitX=0.5;exitY=1;exitDx=0;exitDy=0;entryX=0.5;entryY=0;entryDx=0;entryDy=0;entryPerimeter=0;" edge="1" parent="WIyWlLk6GJQsqaUBKTNV-1" source="a0hSZ147tXvclcMljhqe-17" target="a0hSZ147tXvclcMljhqe-0">
          <mxGeometry relative="1" as="geometry" />
        </mxCell>
        <mxCell id="a0hSZ147tXvclcMljhqe-17" value="start" style="ellipse;whiteSpace=wrap;html=1;" vertex="1" parent="WIyWlLk6GJQsqaUBKTNV-1">
          <mxGeometry x="195" y="680" width="70" height="60" as="geometry" />
        </mxCell>
        <mxCell id="a0hSZ147tXvclcMljhqe-19" value="T" style="text;html=1;strokeColor=none;fillColor=none;align=center;verticalAlign=middle;whiteSpace=wrap;rounded=0;" vertex="1" parent="WIyWlLk6GJQsqaUBKTNV-1">
          <mxGeometry x="180" y="931" width="60" height="30" as="geometry" />
        </mxCell>
        <mxCell id="a0hSZ147tXvclcMljhqe-20" value="F" style="text;html=1;strokeColor=none;fillColor=none;align=center;verticalAlign=middle;whiteSpace=wrap;rounded=0;" vertex="1" parent="WIyWlLk6GJQsqaUBKTNV-1">
          <mxGeometry x="250" y="901" width="60" height="30" as="geometry" />
        </mxCell>
        <mxCell id="a0hSZ147tXvclcMljhqe-21" value="T" style="text;html=1;strokeColor=none;fillColor=none;align=center;verticalAlign=middle;whiteSpace=wrap;rounded=0;" vertex="1" parent="WIyWlLk6GJQsqaUBKTNV-1">
          <mxGeometry x="250" y="1000" width="60" height="30" as="geometry" />
        </mxCell>
        <mxCell id="a0hSZ147tXvclcMljhqe-22" value="T" style="text;html=1;strokeColor=none;fillColor=none;align=center;verticalAlign=middle;whiteSpace=wrap;rounded=0;" vertex="1" parent="WIyWlLk6GJQsqaUBKTNV-1">
          <mxGeometry x="460" y="681" width="60" height="30" as="geometry" />
        </mxCell>
        <mxCell id="a0hSZ147tXvclcMljhqe-23" value="T" style="text;html=1;strokeColor=none;fillColor=none;align=center;verticalAlign=middle;whiteSpace=wrap;rounded=0;" vertex="1" parent="WIyWlLk6GJQsqaUBKTNV-1">
          <mxGeometry x="464" y="781" width="60" height="30" as="geometry" />
        </mxCell>
        <mxCell id="a0hSZ147tXvclcMljhqe-25" value="F" style="text;html=1;strokeColor=none;fillColor=none;align=center;verticalAlign=middle;whiteSpace=wrap;rounded=0;" vertex="1" parent="WIyWlLk6GJQsqaUBKTNV-1">
          <mxGeometry x="524" y="751" width="60" height="30" as="geometry" />
        </mxCell>
        <mxCell id="a0hSZ147tXvclcMljhqe-29" value="F" style="text;html=1;strokeColor=none;fillColor=none;align=center;verticalAlign=middle;whiteSpace=wrap;rounded=0;" vertex="1" parent="WIyWlLk6GJQsqaUBKTNV-1">
          <mxGeometry x="180" y="1030" width="60" height="30" as="geometry" />
        </mxCell>
        <mxCell id="a0hSZ147tXvclcMljhqe-34" value="F" style="text;html=1;strokeColor=none;fillColor=none;align=center;verticalAlign=middle;whiteSpace=wrap;rounded=0;" vertex="1" parent="WIyWlLk6GJQsqaUBKTNV-1">
          <mxGeometry x="530" y="651" width="60" height="30" as="geometry" />
        </mxCell>
      </root>
    </mxGraphModel>
  </diagram>
</mxfile>
